<svg preserveAspectRatio="xMidYMid meet" viewBox="0 0 1422.000000 1422.000000" height="1422.000000pt" width="1422.000000pt" xmlns="http://www.w3.org/2000/svg" version="1.0">
<g stroke="none" transform="translate(0.000000,1422.000000) scale(0.100000,-0.100000)">

  
  <path fill="#A8B0B8" d="M7265 10318 c-14 -29 -41 -80 -60 -113 -19 -33 -38 -67 -42 -75 -3
-8 -17 -32 -30 -52 -13 -21 -37 -64 -54 -95 -17 -32 -67 -120 -110 -196 -44
-75 -79 -139 -79 -142 0 -2 -20 -37 -43 -77 -24 -40 -70 -120 -103 -178 -32
-57 -64 -114 -71 -125 -7 -11 -15 -27 -19 -35 -4 -8 -26 -46 -49 -85 -23 -38
-56 -99 -75 -135 -18 -36 -37 -71 -43 -78 -11 -14 -51 -84 -73 -127 -8 -16
-23 -43 -33 -60 -9 -16 -35 -61 -56 -100 -21 -38 -49 -87 -62 -108 -13 -21
-28 -48 -34 -60 -5 -12 -18 -35 -28 -52 -11 -16 -36 -60 -56 -98 -19 -37 -49
-89 -64 -116 -16 -27 -44 -75 -62 -107 -18 -33 -43 -77 -56 -99 -12 -22 -26
-47 -30 -55 -4 -8 -26 -47 -50 -86 -24 -39 -43 -74 -43 -77 0 -3 -20 -40 -45
-81 -25 -42 -45 -79 -45 -81 0 -2 -20 -39 -45 -81 -25 -41 -45 -77 -45 -79 0
-2 -43 -79 -97 -172 -53 -92 -110 -193 -126 -223 -17 -30 -39 -68 -49 -85 -10
-16 -21 -37 -25 -45 -3 -8 -16 -31 -28 -50 -12 -19 -39 -66 -60 -105 -69 -127
-98 -179 -142 -253 -24 -41 -43 -75 -43 -77 0 -2 -20 -38 -45 -79 -25 -42 -45
-78 -45 -80 0 -3 -19 -37 -43 -78 -24 -40 -46 -80 -50 -88 -4 -8 -18 -33 -30
-55 -13 -22 -38 -66 -56 -99 -18 -32 -46 -81 -62 -108 -16 -27 -29 -51 -29
-53 0 -2 -13 -26 -29 -53 -28 -48 -63 -109 -112 -200 -13 -24 -29 -51 -34 -60
-6 -9 -28 -48 -49 -87 -22 -38 -61 -107 -88 -153 -26 -45 -48 -85 -48 -87 0
-2 -20 -39 -45 -81 -25 -41 -45 -77 -45 -79 0 -4 -84 -149 -100 -175 -6 -8
-14 -25 -19 -37 -6 -11 -15 -24 -20 -28 -6 -3 -11 -19 -11 -35 l0 -28 78 24
c42 13 91 24 107 24 17 0 62 6 100 14 39 9 106 22 150 31 180 36 324 76 605
169 219 73 273 92 298 105 9 5 37 17 62 26 25 10 60 24 77 32 71 30 100 43
148 63 109 46 78 0 326 487 123 243 325 636 449 878 48 94 147 287 220 430 73
143 182 357 243 475 61 118 139 272 174 343 36 70 68 127 73 127 14 0 27 -19
74 -110 23 -47 71 -138 104 -202 34 -65 89 -170 122 -233 33 -63 86 -166 119
-227 32 -62 88 -169 124 -238 126 -243 149 -285 163 -299 12 -13 23 -6 86 54
289 271 594 619 752 857 38 58 41 81 12 118 -6 8 -18 29 -27 45 -19 34 -61
112 -109 200 -18 33 -46 84 -61 113 -16 28 -42 76 -58 105 -47 87 -87 159
-118 217 -17 30 -47 87 -68 125 -21 39 -41 75 -45 80 -4 6 -30 53 -58 105 -51
98 -92 173 -122 225 -9 17 -39 71 -65 120 -51 95 -62 115 -145 265 -30 52 -66
120 -82 150 -47 89 -102 191 -135 250 -17 30 -41 73 -52 95 -12 22 -38 67 -57
100 -18 33 -45 83 -60 110 -14 28 -35 68 -48 90 -12 22 -47 85 -76 140 -68
128 -98 175 -110 175 -5 0 -21 -24 -35 -52z"></path>

  
  <path fill="#1E88E5" d="M8655 9801 c-71 -4 -159 -13 -195 -19 -36 -6 -96 -16 -135 -22 -38
-6 -101 -16 -140 -22 -38 -6 -77 -17 -85 -25 -13 -12 -13 -17 4 -46 10 -18 41
-75 69 -127 54 -101 62 -116 106 -195 l28 -50 104 -7 c177 -11 422 -51 466
-76 12 -6 29 -12 37 -12 9 0 24 -4 34 -9 9 -6 53 -27 97 -47 170 -79 321 -229
379 -374 10 -25 24 -58 31 -75 8 -16 22 -80 31 -142 17 -105 17 -118 0 -240
-9 -70 -24 -150 -32 -178 -8 -27 -22 -75 -30 -105 -9 -30 -20 -64 -25 -75 -4
-11 -27 -65 -50 -120 -22 -55 -45 -104 -49 -110 -4 -5 -29 -50 -55 -100 -26
-49 -60 -108 -75 -130 -15 -22 -52 -78 -83 -125 -77 -118 -244 -337 -357 -466
-188 -215 -505 -522 -744 -719 -27 -22 -63 -52 -80 -67 -117 -103 -639 -483
-758 -553 -93 -55 -164 -100 -166 -107 -2 -4 -8 -8 -12 -8 -5 0 -28 -13 -52
-29 -24 -15 -62 -39 -85 -52 -119 -69 -174 -100 -238 -135 -38 -20 -83 -45
-100 -55 -64 -37 -469 -236 -582 -285 -58 -26 -97 -43 -166 -74 -38 -16 -72
-30 -76 -30 -5 0 -35 -12 -67 -26 -33 -14 -77 -32 -99 -39 -22 -7 -98 -34
-170 -60 -131 -47 -201 -69 -265 -85 -19 -4 -48 -13 -65 -18 -72 -24 -227 -65
-325 -85 -41 -9 -106 -23 -145 -32 -38 -8 -81 -15 -95 -15 -26 0 -115 -21
-255 -60 -44 -12 -105 -29 -135 -37 -57 -14 -62 -16 -195 -53 -44 -12 -96 -26
-115 -30 -50 -10 -142 -42 -137 -47 3 -2 673 -4 1490 -3 1083 0 1494 3 1514
11 36 15 85 35 126 53 48 21 476 234 522 260 22 12 67 37 100 56 162 90 301
177 525 327 257 172 303 204 417 293 39 30 121 95 184 144 63 49 116 92 119
95 3 3 41 37 85 76 329 287 610 572 830 840 22 27 54 65 71 84 87 100 358 482
390 551 4 8 10 17 14 20 10 8 41 63 133 230 45 83 93 182 151 311 55 122 141
386 170 524 35 159 41 226 41 425 0 202 -4 236 -42 385 -22 87 -80 225 -126
300 -98 160 -287 333 -462 423 -90 46 -112 55 -260 106 -214 75 -573 108 -940
87z"></path>

  
  <path fill="#1E88E5" d="M5890 8760 c-145 -95 -357 -244 -470 -331 -14 -10 -45 -33 -70 -51
-25 -17 -47 -35 -50 -38 -5 -7 -220 -180 -289 -233 -38 -30 -50 -47 -31 -47
12 0 73 41 78 53 2 4 8 7 12 7 5 0 37 20 73 44 62 42 131 85 172 106 11 6 34
19 50 30 17 11 41 25 55 30 13 6 27 14 30 18 3 4 21 15 40 26 57 30 163 88
195 107 17 10 69 37 117 61 72 35 89 48 102 78 19 43 53 102 89 155 52 76 32
74 -103 -15z"></path>

  
  <path fill="#A8B0B8" d="M9594 5909 c-151 -175 -545 -548 -813 -769 l-43 -35 62 -120 c34 -66
94 -181 133 -255 83 -159 180 -345 234 -448 20 -41 45 -78 54 -83 15 -8 175
-6 1222 15 114 2 211 7 215 10 3 4 1 15 -4 24 -6 9 -27 46 -46 82 -19 36 -45
83 -58 104 -22 40 -51 92 -106 194 -60 113 -118 218 -146 267 -16 28 -36 64
-44 80 -8 17 -25 48 -37 70 -13 22 -47 85 -76 140 -30 55 -64 116 -75 135 -12
19 -32 55 -44 80 -13 25 -33 63 -46 85 -45 81 -84 152 -121 220 -21 39 -41 75
-45 80 -4 6 -31 56 -60 113 -29 56 -58 102 -65 102 -7 0 -48 -41 -91 -91z"></path>

</g>
</svg>
